<?xml version="1.0" encoding="UTF-8"?>
<svg width="121px" height="17px" viewBox="0 0 121 17" version="1.1" xmlns="http://www.w3.org/2000/svg" xmlns:xlink="http://www.w3.org/1999/xlink">
    <!-- Generator: Sketch 44.1 (41455) - http://www.bohemiancoding.com/sketch -->
    <title>Sep</title>
    <desc>Created with Sketch.</desc>
    <defs></defs>
    <g id="Assets" stroke="none" stroke-width="1" fill="none" fill-rule="evenodd">
        <g id="Elements" transform="translate(-319.000000, -434.000000)" fill="#CCCCCC">
            <path d="M371.751739,446 C371.333797,445.076219 371.076203,444.064385 371.014462,443 L319,443 L319,442 L371.014462,442 C371.076203,440.935615 371.333797,439.923781 371.751739,439 L349,439 L349,438 L372.287553,438 C373.789478,435.597847 376.458141,434 379.5,434 C382.541859,434 385.210522,435.597847 386.712447,438 L410,438 L410,439 L387.248261,439 C387.666203,439.923781 387.923797,440.935615 387.985538,442 L440,442 L440,443 L387.985538,443 C387.923797,444.064385 387.666203,445.076219 387.248261,446 L410,446 L410,447 L386.712447,447 C385.210522,449.402153 382.541859,451 379.5,451 C376.458141,451 373.789478,449.402153 372.287553,447 L349,447 L349,446 L371.751739,446 Z M379.5,450 C383.642136,450 387,446.642136 387,442.5 C387,438.357864 383.642136,435 379.5,435 C375.357864,435 372,438.357864 372,442.5 C372,446.642136 375.357864,450 379.5,450 Z M379.5,446 C377.567003,446 376,444.432997 376,442.5 C376,440.567003 377.567003,439 379.5,439 C381.432997,439 383,440.567003 383,442.5 C383,444.432997 381.432997,446 379.5,446 Z" id="Sep"></path>
        </g>
    </g>
</svg>